<?xml version="1.0" encoding="utf-8"?>
<!-- Generator: Adobe Illustrator 19.0.0, SVG Export Plug-In . SVG Version: 6.00 Build 0)  -->
<svg version="1.1" id="Layer_1" xmlns="http://www.w3.org/2000/svg" xmlns:xlink="http://www.w3.org/1999/xlink" x="0px" y="0px"
	 viewBox="0 0 376.5 300" style="enable-background:new 0 0 376.5 300;" xml:space="preserve">
<style type="text/css">
	.st0{fill:#FFFFFF;}
</style>
<g id="XMLID_1_">
	<path id="XMLID_3_" class="st0" d="M138.2,79.8c-9.1,21.3-19.1,49.8-29.8,85.6c-10.8,35.7-18.6,59.9-23.6,72.4
		c-6.1,15.8-13.1,28.7-21.3,38.7c-8.1,10-16.9,16.8-26.3,20.4c-8.2,3.1-15.6,3.6-22.2,1.5c-6.6-2.1-11.1-6.4-13.6-13
		c-2-5.4-1.8-10.9,0.8-16.3c2.6-5.5,6.6-9.2,12.1-11.3c3.9-1.5,7.3-1.6,10.3-0.5c3,1.1,5.2,3.3,6.4,6.6c1.3,3.4,1.2,6.4-0.1,9
		c-1.4,2.6-3.9,4.6-7.6,6c-2.2,0.8-4.9,1.1-8.1,0.8c-3.2-0.3-5.2-0.3-5.9,0c-0.9,0.3-1.5,1-1.8,2.1c-0.3,1-0.2,2.2,0.3,3.5
		c1.5,3.9,4.8,6.4,10,7.6c5.2,1.2,10.9,0.7,17.1-1.7c5.3-2,10.4-5.2,15.3-9.6c4.9-4.4,9.5-10,14.1-16.9c9.6-14.8,23-50.7,40.2-107.9
		c3.1-10.2,5.5-17.9,7.1-23.3c7.9-25.9,15.3-47.3,22.2-64c6.9-16.7,11.8-25.7,14.7-26.8c0.4-0.2,0.8-0.2,1,0
		c0.3,0.1,0.5,0.4,0.7,0.8c0.5,1.4,0.3,7.3-0.6,17.6c-0.9,10.3-1,20-0.2,29.1c0.6,5.5,1.6,14.2,3.1,26.1
		c5.3,41.9,6.5,76.1,3.5,102.4l30.3-89.4C199.7,89.8,212,59.4,223.2,38c11.2-21.5,21.4-33.9,30.5-37.3c1.6-0.6,2.8-0.8,3.9-0.5
		c1,0.2,1.7,0.8,2.1,1.8c0.5,1.4-0.8,3.2-3.9,5.4c-3.2,2.2-5.6,4.2-7.5,6c-8.4,8.5-16.8,21.1-25,37.9c-8.3,16.7-16.9,38.7-26,65.9
		l-41.8,123.9c-1.7,5-3.1,8.7-4.4,11c-1.2,2.3-2.4,3.6-3.5,4c-0.7,0.2-1.3,0.2-1.8-0.1c-0.5-0.3-0.9-0.8-1.2-1.6
		c-0.2-0.7-0.1-3.2,0.5-7.7c0.6-4.5,1-8.6,1.1-12.4c0.3-10.9-0.6-24.4-2.6-40.6c-0.4-3-0.7-5.3-0.8-6.7l-0.3-2.7
		C137.8,145.7,136.4,110.9,138.2,79.8z"/>
	<path id="XMLID_5_" class="st0" d="M272.8,170.5c-6.7,14.4-13.4,26-20.1,34.8c-6.7,8.8-13.2,14.3-19.3,16.6
		c-4.3,1.6-8.1,1.6-11.5,0.1c-3.4-1.5-5.9-4.3-7.5-8.4c-2.2-5.7-2.1-12.7,0.1-20.9c2.2-8.2,6.4-17,12.7-26.3
		c4.7-7,9.9-13.1,15.6-18.2c5.7-5.1,11.1-8.7,16.2-10.6c4.1-1.5,7.8-1.7,11.1-0.5c3.3,1.2,5.7,3.6,7,7.1c0.9,2.4,1.2,5.3,0.9,8.8
		c-0.3,3.5-1.3,7.5-2.8,12c1.6,1.5,3.4,2.5,5.3,2.8c1.9,0.3,4,0.1,6.2-0.8c3.1-1.2,6.2-3.9,9.2-8.3c3-4.4,5.1-6.7,6-7.1
		c0.5-0.2,0.9-0.2,1.3,0.1c0.4,0.2,0.7,0.7,0.9,1.3c0.6,1.6-0.8,4.9-4.4,9.7c-3.5,4.8-7.3,7.9-11.2,9.4c-2.6,1-5.2,1.4-7.7,1.1
		C278.2,173,275.5,172.1,272.8,170.5z M226.8,212.9c0.6,1.5,1.3,2.4,2.3,2.7c1,0.3,2.2,0.2,3.8-0.4c3.6-1.4,7.7-4.8,12.4-10.4
		c4.6-5.6,9.6-13.1,14.9-22.6c4.6-8.3,7.8-15.6,9.7-22c1.9-6.4,2.3-11.1,1.2-14c-0.6-1.6-1.5-2.6-2.8-3.2s-2.7-0.5-4.4,0.1
		c-2.8,1.1-6.1,3.8-9.9,8.3c-3.8,4.5-7.6,10-11.2,16.6c-6,10.8-10.4,20.2-13.3,28.4C226.6,204.6,225.7,210.1,226.8,212.9z"/>
	<path id="XMLID_8_" class="st0" d="M318.3,131.5c-3.6,5.8-7.5,12.3-11.5,19.6c-4.1,7.3-6.6,11.1-7.6,11.5c-0.4,0.2-0.8,0.1-1.3-0.2
		c-0.4-0.3-0.8-0.8-1-1.4c-0.7-1.9,6.1-14.2,20.4-37l6.9-11.2l6.3-16l-21.7,8.2l2.4-5.8l21.9-8.2l12.1-37.3c0.5-1.4,1.2-2.5,2-3.4
		c0.8-0.9,2-1.6,3.5-2.2c2.7-1,5-1.5,6.9-1.3s3.1,0.7,3.5,1.8c0.2,0.6,0.3,1.1,0.4,1.7c0,0.6-0.1,1.3-0.3,2.1l-11.9,32.6l25-9.4
		l-2.4,5.8l-24.1,9.1l-16.3,44c-3.8,10.2-6.3,18.7-7.5,25.2c-1.2,6.6-1.1,11.6,0.2,15.2c0.7,1.9,1.6,3.2,2.6,3.8
		c1,0.6,2.3,0.7,3.8,0.1c4.1-1.5,8.9-5.3,14.4-11.3c5.5-6,11.2-13.8,17.2-23.3c2.3-3.5,4.5-7.5,6.8-12c2.3-4.5,3.8-6.9,4.7-7.2
		c0.6-0.2,1.1-0.2,1.6,0.1c0.5,0.3,0.9,0.7,1.2,1.4c0.4,1,0,2.7-1,5.1c-1.1,2.4-3.9,7.5-8.6,15.3c-6.4,10.7-12.7,19.5-19.2,26.4
		c-6.4,6.9-12.4,11.3-17.9,13.4c-3.8,1.4-7.1,1.5-10.1,0.3c-3-1.2-5.1-3.6-6.5-7.3c-2-5.4-2.7-11.9-1.9-19.5
		C312.1,152.1,314.4,142.7,318.3,131.5z"/>
</g>
</svg>
